# Blender 4.2.14 LTS
# www.blender.org
mtllib grass_tuft.mtl
o Plane
v -0.532109 0.000000 1.026144
v 0.909538 0.000000 -0.360093
v -0.532109 2.000000 1.026144
v 0.909538 2.000000 -0.360093
v -0.864040 0.000000 -0.621320
v 1.063855 0.000000 -0.089135
v -0.864040 2.000000 -0.621320
v 1.063855 2.000000 -0.089135
v -0.088843 0.000000 1.072365
v -0.555006 0.000000 -0.872549
v -0.088843 2.000000 1.072365
v -0.555006 2.000000 -0.872549
vn 0.6931 -0.0000 0.7208
vn 0.2661 -0.0000 -0.9639
vn -0.9725 -0.0000 0.2331
vt 0.000000 0.000000
vt 1.000000 0.000000
vt 1.000000 1.000000
vt 0.000000 1.000000
s 0
usemtl Material.001
f 1/1/1 2/2/1 4/3/1 3/4/1
f 5/1/2 7/4/2 8/3/2 6/2/2
f 9/1/3 11/4/3 12/3/3 10/2/3
