# Blender 4.2.0
# www.blender.org
mtllib hand.mtl
o Cylinder
v 0.000000 -0.303418 1.000000
v -0.000000 -0.961690 0.317837
v 0.000000 -0.567072 0.948073
v 0.000000 -0.784755 0.800199
v 0.000000 -0.923327 0.578889
v -0.000000 -0.000001 -4.402810
v -0.000000 -0.734892 -3.720647
v -0.000000 -0.269487 -4.350883
v -0.000000 -0.503779 -4.203009
v -0.000000 -0.667208 -3.981699
v 0.116113 -0.280322 1.000000
v 0.368023 -0.888486 0.317837
v 0.217009 -0.523907 0.948073
v 0.300313 -0.725019 0.800199
v 0.353342 -0.853043 0.578889
v 0.000001 -0.000001 -4.402810
v 0.281231 -0.678952 -3.720647
v 0.103128 -0.248974 -4.350883
v 0.192788 -0.465431 -4.203009
v 0.255329 -0.616419 -3.981699
v 0.214549 -0.214549 1.000000
v 0.680018 -0.680018 0.317837
v 0.400981 -0.400981 0.948073
v 0.554906 -0.554906 0.800199
v 0.652891 -0.652891 0.578889
v 0.000001 -0.000001 -4.402810
v 0.519648 -0.519647 -3.720647
v 0.190557 -0.190556 -4.350883
v 0.356226 -0.356226 -4.203009
v 0.471787 -0.471787 -3.981699
v 0.280322 -0.116113 1.000000
v 0.888486 -0.368023 0.317837
v 0.523907 -0.217009 0.948073
v 0.725019 -0.300313 0.800199
v 0.853043 -0.353342 0.578889
v 0.000001 -0.000000 -4.402810
v 0.678952 -0.281231 -3.720647
v 0.248974 -0.103128 -4.350883
v 0.465432 -0.192788 -4.203009
v 0.616420 -0.255329 -3.981699
v 0.303418 -0.000000 1.000000
v 0.961690 -0.000000 0.317837
v 0.567072 -0.000000 0.948073
v 0.784755 -0.000000 0.800199
v 0.923327 -0.000000 0.578889
v 0.000001 0.000000 -4.402810
v 0.734893 0.000000 -3.720647
v 0.269488 0.000000 -4.350883
v 0.503780 0.000000 -4.203009
v 0.667208 0.000000 -3.981699
v 0.280322 0.116113 1.000000
v 0.888486 0.368023 0.317837
v 0.523907 0.217009 0.948073
v 0.725019 0.300313 0.800199
v 0.853043 0.353342 0.578889
v 0.000001 0.000001 -4.402810
v 0.678952 0.281231 -3.720647
v 0.248974 0.103129 -4.350883
v 0.465432 0.192788 -4.203009
v 0.616420 0.255330 -3.981699
v 0.214549 0.214549 1.000000
v 0.680018 0.680018 0.317837
v 0.400981 0.400981 0.948074
v 0.554906 0.554906 0.800199
v 0.652891 0.652890 0.578890
v 0.000001 0.000001 -4.402810
v 0.519648 0.519648 -3.720647
v 0.190557 0.190557 -4.350883
v 0.356226 0.356226 -4.203009
v 0.471787 0.471788 -3.981699
v 0.116113 0.280322 1.000000
v 0.368023 0.888486 0.317837
v 0.217009 0.523907 0.948074
v 0.300313 0.725019 0.800199
v 0.353342 0.853043 0.578890
v 0.000001 0.000001 -4.402810
v 0.281231 0.678953 -3.720647
v 0.103128 0.248974 -4.350883
v 0.192788 0.465432 -4.203009
v 0.255329 0.616420 -3.981699
v -0.000000 0.303418 1.000000
v -0.000000 0.961690 0.317837
v -0.000000 0.567072 0.948074
v -0.000000 0.784755 0.800199
v -0.000000 0.923327 0.578890
v -0.000000 0.000002 -4.402810
v -0.000000 0.734893 -3.720647
v -0.000000 0.269488 -4.350883
v -0.000000 0.503780 -4.203009
v -0.000000 0.667208 -3.981699
v -0.116113 0.280322 1.000000
v -0.368023 0.888486 0.317837
v -0.217009 0.523907 0.948074
v -0.300313 0.725019 0.800199
v -0.353342 0.853043 0.578890
v -0.000001 0.000001 -4.402810
v -0.281231 0.678953 -3.720647
v -0.103129 0.248974 -4.350883
v -0.192788 0.465432 -4.203009
v -0.255329 0.616420 -3.981699
v -0.214549 0.214549 1.000000
v -0.680018 0.680018 0.317837
v -0.400981 0.400981 0.948074
v -0.554906 0.554906 0.800199
v -0.652891 0.652891 0.578890
v -0.000001 0.000001 -4.402810
v -0.519648 0.519648 -3.720647
v -0.190557 0.190557 -4.350883
v -0.356226 0.356226 -4.203009
v -0.471787 0.471788 -3.981699
v -0.280322 0.116113 1.000000
v -0.888486 0.368023 0.317837
v -0.523907 0.217009 0.948073
v -0.725019 0.300313 0.800199
v -0.853043 0.353342 0.578889
v -0.000001 0.000001 -4.402810
v -0.678952 0.281231 -3.720647
v -0.248974 0.103129 -4.350883
v -0.465432 0.192788 -4.203009
v -0.616420 0.255330 -3.981699
v -0.303418 -0.000000 1.000000
v -0.961690 -0.000000 0.317837
v -0.567072 -0.000000 0.948073
v -0.784755 -0.000000 0.800199
v -0.923327 -0.000000 0.578889
v -0.000001 0.000000 -4.402810
v -0.734893 0.000000 -3.720647
v -0.269488 0.000000 -4.350883
v -0.503780 0.000000 -4.203009
v -0.667208 0.000000 -3.981699
v -0.280322 -0.116113 1.000000
v -0.888486 -0.368023 0.317837
v -0.523907 -0.217009 0.948073
v -0.725019 -0.300313 0.800199
v -0.853043 -0.353342 0.578889
v -0.000001 -0.000000 -4.402810
v -0.678952 -0.281231 -3.720647
v -0.248974 -0.103128 -4.350883
v -0.465432 -0.192788 -4.203009
v -0.616420 -0.255329 -3.981699
v -0.214549 -0.214549 1.000000
v -0.680018 -0.680018 0.317837
v -0.400981 -0.400981 0.948073
v -0.554906 -0.554906 0.800199
v -0.652891 -0.652891 0.578889
v -0.000001 -0.000001 -4.402810
v -0.519648 -0.519647 -3.720647
v -0.190557 -0.190556 -4.350883
v -0.356226 -0.356226 -4.203009
v -0.471787 -0.471787 -3.981699
v -0.116113 -0.280322 1.000000
v -0.368023 -0.888486 0.317837
v -0.217009 -0.523907 0.948073
v -0.300313 -0.725019 0.800199
v -0.353342 -0.853043 0.578889
v -0.000001 -0.000001 -4.402810
v -0.281231 -0.678952 -3.720647
v -0.103129 -0.248974 -4.350883
v -0.192788 -0.465431 -4.203009
v -0.255329 -0.616419 -3.981699
vn -0.0000 -0.1091 0.9940
vn -0.0000 -0.9990 0.0443
vn -0.0000 -0.4062 0.9138
vn -0.0000 -0.7321 0.6812
vn -0.0000 -0.9414 0.3374
vn 0.0305 -0.1068 -0.9938
vn -0.0000 -0.9883 -0.1524
vn -0.0000 -0.3875 -0.9219
vn -0.0000 -0.6928 -0.7211
vn -0.0000 -0.9069 -0.4214
vn 0.0417 -0.1008 0.9940
vn 0.3823 -0.9230 0.0443
vn 0.1554 -0.3753 0.9138
vn 0.2802 -0.6763 0.6812
vn 0.3602 -0.8697 0.3374
vn 0.0713 -0.0988 -0.9925
vn 0.3782 -0.9131 -0.1524
vn 0.1483 -0.3580 -0.9219
vn 0.2651 -0.6401 -0.7211
vn 0.3470 -0.8378 -0.4214
vn 0.0771 -0.0771 0.9940
vn 0.7064 -0.7064 0.0443
vn 0.2872 -0.2872 0.9138
vn 0.5177 -0.5177 0.6812
vn 0.6656 -0.6656 0.3374
vn 0.1057 -0.0752 -0.9916
vn 0.6988 -0.6988 -0.1524
vn 0.2740 -0.2740 -0.9219
vn 0.4899 -0.4899 -0.7211
vn 0.6412 -0.6412 -0.4214
vn 0.1008 -0.0417 0.9940
vn 0.9230 -0.3823 0.0443
vn 0.3753 -0.1554 0.9138
vn 0.6763 -0.2802 0.6812
vn 0.8697 -0.3602 0.3374
vn 0.1289 -0.0408 -0.9908
vn 0.9131 -0.3782 -0.1524
vn 0.3580 -0.1483 -0.9219
vn 0.6401 -0.2651 -0.7211
vn 0.8378 -0.3470 -0.4214
vn 0.1091 -0.0000 0.9940
vn 0.9990 -0.0000 0.0443
vn 0.4062 -0.0000 0.9138
vn 0.7321 -0.0000 0.6812
vn 0.9414 -0.0000 0.3374
vn 0.1368 -0.0000 -0.9906
vn 0.9883 -0.0000 -0.1524
vn 0.3875 -0.0000 -0.9219
vn 0.6928 -0.0000 -0.7211
vn 0.9069 -0.0000 -0.4214
vn 0.1008 0.0417 0.9940
vn 0.9230 0.3823 0.0443
vn 0.3753 0.1554 0.9138
vn 0.6763 0.2802 0.6812
vn 0.8697 0.3602 0.3374
vn 0.1286 0.0405 -0.9909
vn 0.9131 0.3782 -0.1524
vn 0.3580 0.1483 -0.9219
vn 0.6401 0.2651 -0.7211
vn 0.8378 0.3470 -0.4214
vn 0.0771 0.0771 0.9940
vn 0.7064 0.7064 0.0443
vn 0.2872 0.2872 0.9138
vn 0.5177 0.5177 0.6812
vn 0.6656 0.6656 0.3374
vn 0.1060 0.0756 -0.9915
vn 0.6988 0.6988 -0.1524
vn 0.2740 0.2740 -0.9219
vn 0.4899 0.4899 -0.7211
vn 0.6412 0.6412 -0.4214
vn 0.0417 0.1008 0.9940
vn 0.3823 0.9230 0.0443
vn 0.1554 0.3753 0.9138
vn 0.2802 0.6763 0.6812
vn 0.3602 0.8697 0.3374
vn 0.0714 0.0983 -0.9926
vn 0.3782 0.9131 -0.1524
vn 0.1483 0.3580 -0.9219
vn 0.2651 0.6401 -0.7211
vn 0.3470 0.8378 -0.4214
vn -0.0000 0.1091 0.9940
vn -0.0000 0.9990 0.0443
vn -0.0000 0.4062 0.9138
vn -0.0000 0.7321 0.6812
vn -0.0000 0.9414 0.3374
vn 0.0306 0.1069 -0.9938
vn -0.0000 0.9883 -0.1524
vn -0.0000 0.3875 -0.9219
vn -0.0000 0.6928 -0.7211
vn -0.0000 0.9069 -0.4214
vn -0.0417 0.1008 0.9940
vn -0.3823 0.9230 0.0443
vn -0.1554 0.3753 0.9138
vn -0.2802 0.6763 0.6812
vn -0.3602 0.8697 0.3374
vn -0.0124 0.1008 -0.9948
vn -0.3782 0.9131 -0.1524
vn -0.1483 0.3580 -0.9219
vn -0.2651 0.6401 -0.7211
vn -0.3470 0.8378 -0.4214
vn -0.0771 0.0771 0.9940
vn -0.7064 0.7064 0.0443
vn -0.2872 0.2872 0.9138
vn -0.5177 0.5177 0.6812
vn -0.6656 0.6656 0.3374
vn -0.0427 0.0738 -0.9964
vn -0.6988 0.6988 -0.1524
vn -0.2740 0.2740 -0.9219
vn -0.4899 0.4899 -0.7211
vn -0.6412 0.6412 -0.4214
vn -0.1008 0.0417 0.9940
vn -0.9230 0.3823 0.0443
vn -0.3753 0.1554 0.9138
vn -0.6763 0.2802 0.6812
vn -0.8697 0.3602 0.3374
vn -0.0691 0.0413 -0.9968
vn -0.9131 0.3782 -0.1524
vn -0.3580 0.1483 -0.9219
vn -0.6401 0.2651 -0.7211
vn -0.8378 0.3470 -0.4214
vn -0.1091 -0.0000 0.9940
vn -0.9990 -0.0000 0.0443
vn -0.4062 -0.0000 0.9138
vn -0.7321 -0.0000 0.6812
vn -0.9414 -0.0000 0.3374
vn -0.0764 -0.0000 -0.9971
vn -0.9883 -0.0000 -0.1524
vn -0.3875 -0.0000 -0.9219
vn -0.6928 -0.0000 -0.7211
vn -0.9069 -0.0000 -0.4214
vn -0.1008 -0.0417 0.9940
vn -0.9230 -0.3823 0.0443
vn -0.3753 -0.1554 0.9138
vn -0.6763 -0.2802 0.6812
vn -0.8697 -0.3602 0.3374
vn -0.0683 -0.0409 -0.9968
vn -0.9131 -0.3782 -0.1524
vn -0.3580 -0.1483 -0.9219
vn -0.6401 -0.2651 -0.7211
vn -0.8378 -0.3470 -0.4214
vn -0.0771 -0.0771 0.9940
vn -0.7064 -0.7064 0.0443
vn -0.2872 -0.2872 0.9138
vn -0.5177 -0.5177 0.6812
vn -0.6656 -0.6656 0.3374
vn -0.0457 -0.0762 -0.9960
vn -0.6988 -0.6988 -0.1524
vn -0.2740 -0.2740 -0.9219
vn -0.4899 -0.4899 -0.7211
vn -0.6412 -0.6412 -0.4214
vn -0.0417 -0.1008 0.9940
vn -0.3823 -0.9230 0.0443
vn -0.1554 -0.3753 0.9138
vn -0.2802 -0.6763 0.6812
vn -0.3602 -0.8697 0.3374
vn -0.0100 -0.0985 -0.9951
vn -0.3782 -0.9131 -0.1524
vn -0.1483 -0.3580 -0.9219
vn -0.2651 -0.6401 -0.7211
vn -0.3470 -0.8378 -0.4214
vt 0.062500 0.563130
vt 0.062500 0.936870
vt 0.000000 0.936870
vt 0.000000 0.563130
vt 0.875000 0.563130
vt 0.875000 0.936870
vt 0.812500 0.936870
vt 0.812500 0.563130
vt 0.812500 0.563130
vt 0.750000 0.936870
vt 0.750000 0.563130
vt 0.687500 0.936870
vt 0.687500 0.563130
vt 0.687500 0.936870
vt 0.625000 0.936870
vt 0.625000 0.563130
vt 0.625000 0.563130
vt 0.625000 0.936870
vt 0.562500 0.936870
vt 0.562500 0.563130
vt 0.562500 0.563130
vt 0.500000 0.936870
vt 0.500000 0.563130
vt 0.437500 0.936870
vt 0.437500 0.563130
vt 0.437500 0.936870
vt 0.375000 0.936870
vt 0.375000 0.563130
vt 0.375000 0.563130
vt 0.375000 0.936870
vt 0.312500 0.936870
vt 0.312500 0.563130
vt 0.312500 0.563130
vt 0.250000 0.936870
vt 0.250000 0.563130
vt 0.187500 0.936870
vt 0.187500 0.563130
vt 0.187500 0.936870
vt 0.125000 0.936870
vt 0.125000 0.563130
vt 0.125000 0.563130
vt 0.125000 0.936870
vt 0.062500 0.563130
vt 0.937500 0.563130
vt 0.937500 0.936870
vt 0.875000 0.936870
vt 0.875000 0.563130
vt 0.250000 0.250000
vt 0.250000 0.250000
vt 0.250000 0.250000
vt 0.250000 0.250000
vt 0.250000 0.250000
vt 0.250000 0.250000
vt 0.250000 0.250000
vt 0.250000 0.250000
vt 0.250000 0.250000
vt 0.250000 0.250000
vt 0.250000 0.250000
vt 0.250000 0.250000
vt 0.250000 0.250000
vt 0.250000 0.250000
vt 0.250000 0.250000
vt 0.250000 0.250000
vt 1.000000 0.563130
vt 1.000000 0.936870
vt 0.939198 0.539236
vt 0.998302 0.539236
vt 0.944226 0.500000
vt 0.993274 0.500000
vt 0.759884 0.488034
vt 0.831960 0.473697
vt 0.802082 0.375738
vt 0.750000 0.386097
vt 0.777867 0.317277
vt 0.750000 0.322820
vt 0.997712 0.961293
vt 0.939788 0.961293
vt 0.991351 1.000000
vt 0.946150 1.000000
vt 0.329134 0.474259
vt 0.262711 0.487472
vt 0.250000 0.342849
vt 0.285532 0.335781
vt 0.876698 0.539236
vt 0.935802 0.539236
vt 0.881726 0.500000
vt 0.930774 0.500000
vt 0.850224 0.466132
vt 0.911326 0.425305
vt 0.846236 0.346235
vt 0.801492 0.301492
vt 0.935212 0.961293
vt 0.877288 0.961293
vt 0.928850 1.000000
vt 0.883650 1.000000
vt 0.408930 0.426906
vt 0.352619 0.464531
vt 0.315654 0.315654
vt 0.814198 0.539236
vt 0.873302 0.539236
vt 0.819226 0.500000
vt 0.868274 0.500000
vt 0.925305 0.411326
vt 0.966132 0.350224
vt 0.875738 0.302082
vt 0.817277 0.277867
vt 0.872712 0.961293
vt 0.814788 0.961293
vt 0.866350 1.000000
vt 0.821150 1.000000
vt 0.464531 0.352619
vt 0.426906 0.408930
vt 0.335781 0.285532
vt 0.751698 0.539236
vt 0.810802 0.539236
vt 0.756726 0.500000
vt 0.805774 0.500000
vt 0.973697 0.331960
vt 0.988034 0.259884
vt 0.886098 0.250000
vt 0.822821 0.250000
vt 0.810212 0.961293
vt 0.752288 0.961293
vt 0.803850 1.000000
vt 0.758650 1.000000
vt 0.487472 0.262711
vt 0.474259 0.329134
vt 0.342849 0.250000
vt 0.689198 0.539236
vt 0.748302 0.539236
vt 0.694226 0.500000
vt 0.743274 0.500000
vt 0.988034 0.240116
vt 0.973697 0.168040
vt 0.875738 0.197918
vt 0.817277 0.222133
vt 0.747712 0.961293
vt 0.689788 0.961293
vt 0.741351 1.000000
vt 0.696149 1.000000
vt 0.474259 0.170866
vt 0.487472 0.237290
vt 0.335781 0.214468
vt 0.626698 0.539236
vt 0.685802 0.539236
vt 0.631726 0.500000
vt 0.680774 0.500000
vt 0.966132 0.149776
vt 0.925305 0.088674
vt 0.846235 0.153765
vt 0.801492 0.198508
vt 0.685212 0.961293
vt 0.627288 0.961293
vt 0.678850 1.000000
vt 0.633650 1.000000
vt 0.426906 0.091070
vt 0.464531 0.147381
vt 0.315654 0.184346
vt 0.564198 0.539236
vt 0.623302 0.539236
vt 0.569226 0.500000
vt 0.618274 0.500000
vt 0.911326 0.074695
vt 0.850224 0.033868
vt 0.802082 0.124262
vt 0.777867 0.182723
vt 0.622712 0.961293
vt 0.564788 0.961293
vt 0.616350 1.000000
vt 0.571150 1.000000
vt 0.352619 0.035469
vt 0.408930 0.073094
vt 0.285532 0.164219
vt 0.501698 0.539236
vt 0.560802 0.539236
vt 0.506726 0.500000
vt 0.555774 0.500000
vt 0.831960 0.026303
vt 0.759884 0.011966
vt 0.750000 0.113903
vt 0.750000 0.177180
vt 0.560212 0.961293
vt 0.502288 0.961293
vt 0.553850 1.000000
vt 0.508650 1.000000
vt 0.262711 0.012528
vt 0.329134 0.025741
vt 0.250000 0.157151
vt 0.439198 0.539236
vt 0.498302 0.539236
vt 0.444226 0.500000
vt 0.493274 0.500000
vt 0.740116 0.011966
vt 0.668040 0.026303
vt 0.697918 0.124262
vt 0.722133 0.182723
vt 0.497712 0.961293
vt 0.439788 0.961293
vt 0.491351 1.000000
vt 0.446150 1.000000
vt 0.170866 0.025741
vt 0.237290 0.012528
vt 0.214468 0.164219
vt 0.376698 0.539236
vt 0.435802 0.539236
vt 0.381726 0.500000
vt 0.430774 0.500000
vt 0.649776 0.033868
vt 0.588674 0.074695
vt 0.653765 0.153765
vt 0.698508 0.198508
vt 0.435212 0.961293
vt 0.377288 0.961293
vt 0.428851 1.000000
vt 0.383650 1.000000
vt 0.091070 0.073094
vt 0.147381 0.035469
vt 0.184346 0.184346
vt 0.314198 0.539236
vt 0.373302 0.539236
vt 0.319226 0.500000
vt 0.368274 0.500000
vt 0.574695 0.088674
vt 0.533868 0.149776
vt 0.624262 0.197918
vt 0.682723 0.222133
vt 0.372712 0.961293
vt 0.314788 0.961293
vt 0.366350 1.000000
vt 0.321150 1.000000
vt 0.035469 0.147381
vt 0.073094 0.091070
vt 0.164219 0.214468
vt 0.251698 0.539236
vt 0.310802 0.539236
vt 0.256726 0.500000
vt 0.305774 0.500000
vt 0.526303 0.168040
vt 0.511966 0.240116
vt 0.613903 0.250000
vt 0.677180 0.250000
vt 0.310212 0.961293
vt 0.252288 0.961293
vt 0.303850 1.000000
vt 0.258650 1.000000
vt 0.012528 0.237289
vt 0.025741 0.170866
vt 0.157151 0.250000
vt 0.189198 0.539236
vt 0.248302 0.539236
vt 0.194226 0.500000
vt 0.243274 0.500000
vt 0.511966 0.259884
vt 0.526303 0.331960
vt 0.624262 0.302082
vt 0.682723 0.277867
vt 0.247712 0.961293
vt 0.189788 0.961293
vt 0.241350 1.000000
vt 0.196150 1.000000
vt 0.025741 0.329134
vt 0.012528 0.262711
vt 0.164219 0.285532
vt 0.126698 0.539236
vt 0.185802 0.539236
vt 0.131726 0.500000
vt 0.180774 0.500000
vt 0.533868 0.350224
vt 0.574695 0.411326
vt 0.653765 0.346235
vt 0.698508 0.301492
vt 0.185212 0.961293
vt 0.127288 0.961293
vt 0.178850 1.000000
vt 0.133649 1.000000
vt 0.073094 0.408930
vt 0.035469 0.352619
vt 0.184346 0.315654
vt 0.064198 0.539236
vt 0.123302 0.539236
vt 0.069226 0.500000
vt 0.118274 0.500000
vt 0.588674 0.425305
vt 0.649776 0.466132
vt 0.697918 0.375738
vt 0.722133 0.317277
vt 0.122712 0.961293
vt 0.064788 0.961293
vt 0.116350 1.000000
vt 0.071150 1.000000
vt 0.147381 0.464531
vt 0.091070 0.426906
vt 0.214468 0.335781
vt 0.001698 0.539236
vt 0.060802 0.539236
vt 0.006726 0.500000
vt 0.055774 0.500000
vt 0.668040 0.473697
vt 0.740116 0.488034
vt 0.060212 0.961293
vt 0.002288 0.961293
vt 0.053850 1.000000
vt 0.008650 1.000000
vt 0.237289 0.487472
vt 0.170866 0.474259
s 1
f 152/1/152 157/2/157 7/3/7 2/4/2
f 22/5/22 27/6/27 37/7/37 32/8/32
f 32/9/32 37/7/37 47/10/47 42/11/42
f 42/11/42 47/10/47 57/12/57 52/13/52
f 52/13/52 57/14/57 67/15/67 62/16/62
f 62/17/62 67/18/67 77/19/77 72/20/72
f 72/21/72 77/19/77 87/22/87 82/23/82
f 82/23/82 87/22/87 97/24/97 92/25/92
f 92/25/92 97/26/97 107/27/107 102/28/102
f 102/29/102 107/30/107 117/31/117 112/32/112
f 112/33/112 117/31/117 127/34/127 122/35/122
f 122/35/122 127/34/127 137/36/137 132/37/132
f 132/37/132 137/38/137 147/39/147 142/40/142
f 142/41/142 147/42/147 157/2/157 152/43/152
f 12/44/12 17/45/17 27/46/27 22/47/22
f 16/48/16 6/49/6 156/50/156 146/51/146 136/52/136 126/53/126 116/54/116 106/55/106 96/56/96 86/57/86 76/58/76 66/59/66 56/60/56 46/61/46 36/62/36 26/63/26
f 2/64/2 7/65/7 17/45/17 12/44/12
f 2/64/2 12/44/12 15/66/15 5/67/5
f 5/67/5 15/66/15 14/68/14 4/69/4
f 4/70/4 14/71/14 13/72/13 3/73/3
f 3/73/3 13/72/13 11/74/11 1/75/1
f 17/45/17 7/65/7 10/76/10 20/77/20
f 20/77/20 10/76/10 9/78/9 19/79/19
f 19/80/19 9/81/9 8/82/8 18/83/18
f 18/83/18 8/82/8 6/49/6 16/48/16
f 12/44/12 22/47/22 25/84/25 15/85/15
f 15/85/15 25/84/25 24/86/24 14/87/14
f 14/88/14 24/89/24 23/90/23 13/72/13
f 13/72/13 23/90/23 21/91/21 11/74/11
f 27/46/27 17/45/17 20/92/20 30/93/30
f 30/93/30 20/92/20 19/94/19 29/95/29
f 29/96/29 19/97/19 18/83/18 28/98/28
f 28/98/28 18/83/18 16/48/16 26/63/26
f 22/5/22 32/8/32 35/99/35 25/100/25
f 25/100/25 35/99/35 34/101/34 24/102/24
f 24/103/24 34/104/34 33/105/33 23/90/23
f 23/90/23 33/105/33 31/106/31 21/91/21
f 37/7/37 27/6/27 30/107/30 40/108/40
f 40/108/40 30/107/30 29/109/29 39/110/39
f 39/111/39 29/112/29 28/98/28 38/113/38
f 38/113/38 28/98/28 26/63/26 36/62/36
f 32/9/32 42/11/42 45/114/45 35/115/35
f 35/115/35 45/114/45 44/116/44 34/117/34
f 34/118/34 44/119/44 43/120/43 33/105/33
f 33/105/33 43/120/43 41/121/41 31/106/31
f 47/10/47 37/7/37 40/122/40 50/123/50
f 50/123/50 40/122/40 39/124/39 49/125/49
f 49/126/49 39/127/39 38/113/38 48/128/48
f 48/128/48 38/113/38 36/62/36 46/61/46
f 42/11/42 52/13/52 55/129/55 45/130/45
f 45/130/45 55/129/55 54/131/54 44/132/44
f 44/133/44 54/134/54 53/135/53 43/120/43
f 43/120/43 53/135/53 51/136/51 41/121/41
f 57/12/57 47/10/47 50/137/50 60/138/60
f 60/138/60 50/137/50 49/139/49 59/140/59
f 59/141/59 49/142/49 48/128/48 58/143/58
f 58/143/58 48/128/48 46/61/46 56/60/56
f 52/13/52 62/16/62 65/144/65 55/145/55
f 55/145/55 65/144/65 64/146/64 54/147/54
f 54/148/54 64/149/64 63/150/63 53/135/53
f 53/135/53 63/150/63 61/151/61 51/136/51
f 67/15/67 57/14/57 60/152/60 70/153/70
f 70/153/70 60/152/60 59/154/59 69/155/69
f 69/156/69 59/157/59 58/143/58 68/158/68
f 68/158/68 58/143/58 56/60/56 66/59/66
f 62/17/62 72/20/72 75/159/75 65/160/65
f 65/160/65 75/159/75 74/161/74 64/162/64
f 64/163/64 74/164/74 73/165/73 63/150/63
f 63/150/63 73/165/73 71/166/71 61/151/61
f 77/19/77 67/18/67 70/167/70 80/168/80
f 80/168/80 70/167/70 69/169/69 79/170/79
f 79/171/79 69/172/69 68/158/68 78/173/78
f 78/173/78 68/158/68 66/59/66 76/58/76
f 72/21/72 82/23/82 85/174/85 75/175/75
f 75/175/75 85/174/85 84/176/84 74/177/74
f 74/178/74 84/179/84 83/180/83 73/165/73
f 73/165/73 83/180/83 81/181/81 71/166/71
f 87/22/87 77/19/77 80/182/80 90/183/90
f 90/183/90 80/182/80 79/184/79 89/185/89
f 89/186/89 79/187/79 78/173/78 88/188/88
f 88/188/88 78/173/78 76/58/76 86/57/86
f 82/23/82 92/25/92 95/189/95 85/190/85
f 85/190/85 95/189/95 94/191/94 84/192/84
f 84/193/84 94/194/94 93/195/93 83/180/83
f 83/180/83 93/195/93 91/196/91 81/181/81
f 97/24/97 87/22/87 90/197/90 100/198/100
f 100/198/100 90/197/90 89/199/89 99/200/99
f 99/201/99 89/202/89 88/188/88 98/203/98
f 98/203/98 88/188/88 86/57/86 96/56/96
f 92/25/92 102/28/102 105/204/105 95/205/95
f 95/205/95 105/204/105 104/206/104 94/207/94
f 94/208/94 104/209/104 103/210/103 93/195/93
f 93/195/93 103/210/103 101/211/101 91/196/91
f 107/27/107 97/26/97 100/212/100 110/213/110
f 110/213/110 100/212/100 99/214/99 109/215/109
f 109/216/109 99/217/99 98/203/98 108/218/108
f 108/218/108 98/203/98 96/56/96 106/55/106
f 102/29/102 112/32/112 115/219/115 105/220/105
f 105/220/105 115/219/115 114/221/114 104/222/104
f 104/223/104 114/224/114 113/225/113 103/210/103
f 103/210/103 113/225/113 111/226/111 101/211/101
f 117/31/117 107/30/107 110/227/110 120/228/120
f 120/228/120 110/227/110 109/229/109 119/230/119
f 119/231/119 109/232/109 108/218/108 118/233/118
f 118/233/118 108/218/108 106/55/106 116/54/116
f 112/33/112 122/35/122 125/234/125 115/235/115
f 115/235/115 125/234/125 124/236/124 114/237/114
f 114/238/114 124/239/124 123/240/123 113/225/113
f 113/225/113 123/240/123 121/241/121 111/226/111
f 127/34/127 117/31/117 120/242/120 130/243/130
f 130/243/130 120/242/120 119/244/119 129/245/129
f 129/246/129 119/247/119 118/233/118 128/248/128
f 128/248/128 118/233/118 116/54/116 126/53/126
f 122/35/122 132/37/132 135/249/135 125/250/125
f 125/250/125 135/249/135 134/251/134 124/252/124
f 124/253/124 134/254/134 133/255/133 123/240/123
f 123/240/123 133/255/133 131/256/131 121/241/121
f 137/36/137 127/34/127 130/257/130 140/258/140
f 140/258/140 130/257/130 129/259/129 139/260/139
f 139/261/139 129/262/129 128/248/128 138/263/138
f 138/263/138 128/248/128 126/53/126 136/52/136
f 132/37/132 142/40/142 145/264/145 135/265/135
f 135/265/135 145/264/145 144/266/144 134/267/134
f 134/268/134 144/269/144 143/270/143 133/255/133
f 133/255/133 143/270/143 141/271/141 131/256/131
f 147/39/147 137/38/137 140/272/140 150/273/150
f 150/273/150 140/272/140 139/274/139 149/275/149
f 149/276/149 139/277/139 138/263/138 148/278/148
f 148/278/148 138/263/138 136/52/136 146/51/146
f 142/41/142 152/43/152 155/279/155 145/280/145
f 145/280/145 155/279/155 154/281/154 144/282/144
f 144/283/144 154/284/154 153/285/153 143/270/143
f 143/270/143 153/285/153 151/286/151 141/271/141
f 157/2/157 147/42/147 150/287/150 160/288/160
f 160/288/160 150/287/150 149/289/149 159/290/159
f 159/291/159 149/292/149 148/278/148 158/293/158
f 158/293/158 148/278/148 146/51/146 156/50/156
f 152/1/152 2/4/2 5/294/5 155/295/155
f 155/295/155 5/294/5 4/296/4 154/297/154
f 154/298/154 4/299/4 3/73/3 153/285/153
f 153/285/153 3/73/3 1/75/1 151/286/151
f 7/3/7 157/2/157 160/300/160 10/301/10
f 10/301/10 160/300/160 159/302/159 9/303/9
f 9/304/9 159/305/159 158/293/158 8/82/8
f 8/82/8 158/293/158 156/50/156 6/49/6
f 1/75/1 11/74/11 21/91/21 31/106/31 41/121/41 51/136/51 61/151/61 71/166/71 81/181/81 91/196/91 101/211/101 111/226/111 121/241/121 131/256/131 141/271/141 151/286/151
